<?xml version="1.0" encoding="UTF-8" standalone="no"?>
<!-- Created with Inkscape (http://www.inkscape.org/) -->

<svg
   width="210mm"
   height="297mm"
   viewBox="0 0 210 297"
   version="1.1"
   id="svg1"
   xml:space="preserve"
   inkscape:version="1.3 (0e150ed6c4, 2023-07-21)"
   sodipodi:docname="pump-icons.svg"
   xmlns:inkscape="http://www.inkscape.org/namespaces/inkscape"
   xmlns:sodipodi="http://sodipodi.sourceforge.net/DTD/sodipodi-0.dtd"
   xmlns:xlink="http://www.w3.org/1999/xlink"
   xmlns="http://www.w3.org/2000/svg"
   xmlns:svg="http://www.w3.org/2000/svg"><sodipodi:namedview
     id="namedview1"
     pagecolor="#ffffff"
     bordercolor="#000000"
     borderopacity="0.25"
     inkscape:showpageshadow="2"
     inkscape:pageopacity="0.0"
     inkscape:pagecheckerboard="0"
     inkscape:deskcolor="#d1d1d1"
     inkscape:document-units="mm"
     inkscape:zoom="0.89"
     inkscape:cx="528.65169"
     inkscape:cy="529.77528"
     inkscape:window-width="2560"
     inkscape:window-height="1369"
     inkscape:window-x="1192"
     inkscape:window-y="479"
     inkscape:window-maximized="1"
     inkscape:current-layer="layer1" /><defs
     id="defs1"><linearGradient
       id="swatch13"
       inkscape:swatch="solid"
       inkscape:label="black"><stop
         style="stop-color:#000000;stop-opacity:1;"
         offset="0"
         id="stop13" /></linearGradient><linearGradient
       id="swatch10"><stop
         style="stop-color:#943838;stop-opacity:1;"
         offset="0"
         id="stop10" /></linearGradient><linearGradient
       id="swatch9"
       inkscape:swatch="solid"
       inkscape:label="red"><stop
         style="stop-color:#943838;stop-opacity:1;"
         offset="0"
         id="stop9" /></linearGradient><linearGradient
       id="swatch4"
       inkscape:swatch="solid"
       inkscape:label="pale-red"><stop
         style="stop-color:#943838;stop-opacity:0.5;"
         offset="0"
         id="stop4" /></linearGradient><linearGradient
       id="swatch2"
       inkscape:swatch="solid"
       inkscape:label="green"><stop
         style="stop-color:#389438;stop-opacity:1;"
         offset="0"
         id="stop2" /></linearGradient><linearGradient
       inkscape:collect="always"
       xlink:href="#swatch2"
       id="linearGradient2"
       x1="26.669285"
       y1="118.98029"
       x2="127.79938"
       y2="118.98029"
       gradientUnits="userSpaceOnUse"
       gradientTransform="matrix(2.0226019,0,0,2.1080511,26.669267,55.73876)" /><linearGradient
       inkscape:collect="always"
       xlink:href="#swatch4"
       id="linearGradient6"
       gradientUnits="userSpaceOnUse"
       x1="26.669285"
       y1="118.98029"
       x2="127.79938"
       y2="118.98029"
       gradientTransform="matrix(2.0226019,0,0,2.1080511,49.170856,55.738761)" /><linearGradient
       inkscape:collect="always"
       xlink:href="#swatch4"
       id="linearGradient7"
       gradientUnits="userSpaceOnUse"
       x1="26.669285"
       y1="118.98029"
       x2="127.79938"
       y2="118.98029"
       gradientTransform="matrix(2.0226019,0,0,2.1080511,49.170856,55.738761)" /><linearGradient
       inkscape:collect="always"
       xlink:href="#swatch4"
       id="linearGradient8"
       gradientUnits="userSpaceOnUse"
       x1="26.669285"
       y1="118.98029"
       x2="127.79938"
       y2="118.98029"
       gradientTransform="matrix(2.0226019,0,0,2.1080511,49.170856,55.738761)" /><linearGradient
       inkscape:collect="always"
       xlink:href="#swatch9"
       id="linearGradient10"
       x1="26.669285"
       y1="118.98029"
       x2="127.79938"
       y2="118.98029"
       gradientUnits="userSpaceOnUse"
       gradientTransform="matrix(2.0226019,0,0,2.1080511,251.43093,-155.06635)" /><linearGradient
       inkscape:collect="always"
       xlink:href="#swatch13"
       id="linearGradient13"
       x1="26.669285"
       y1="118.98029"
       x2="127.79938"
       y2="118.98029"
       gradientUnits="userSpaceOnUse"
       gradientTransform="matrix(2.0226019,0,0,2.1080511,509.39724,-155.06635)" /><linearGradient
       inkscape:collect="always"
       xlink:href="#swatch9"
       id="linearGradient14"
       gradientUnits="userSpaceOnUse"
       x1="26.669285"
       y1="118.98029"
       x2="127.79938"
       y2="118.98029"
       gradientTransform="matrix(2.0226019,0,0,2.1080511,251.43093,-155.06635)" /><linearGradient
       inkscape:collect="always"
       xlink:href="#swatch9"
       id="linearGradient15"
       gradientUnits="userSpaceOnUse"
       x1="26.669285"
       y1="118.98029"
       x2="127.79938"
       y2="118.98029"
       gradientTransform="matrix(2.0226019,0,0,2.1080511,251.43093,-155.06635)" /><linearGradient
       inkscape:collect="always"
       xlink:href="#swatch13"
       id="linearGradient16"
       gradientUnits="userSpaceOnUse"
       x1="26.669285"
       y1="118.98029"
       x2="127.79938"
       y2="118.98029"
       gradientTransform="matrix(2.0226019,0,0,2.1080511,509.39724,-155.06635)" /><linearGradient
       inkscape:collect="always"
       xlink:href="#swatch13"
       id="linearGradient17"
       gradientUnits="userSpaceOnUse"
       x1="26.669285"
       y1="118.98029"
       x2="127.79938"
       y2="118.98029"
       gradientTransform="matrix(2.0226019,0,0,2.1080511,509.39724,-155.06635)" /><linearGradient
       inkscape:collect="always"
       xlink:href="#swatch13"
       id="linearGradient18"
       gradientUnits="userSpaceOnUse"
       gradientTransform="translate(338.66682)"
       x1="26.669285"
       y1="118.98029"
       x2="127.79938"
       y2="118.98029" /></defs><g
     inkscape:label="Layer 1"
     inkscape:groupmode="layer"
     id="layer1"><g
       id="g2"
       inkscape:label="icon-green"
       transform="matrix(0.49441266,0,0,0.4743718,-13.185632,-26.440895)"
       style="stroke-width:2.06488"
       inkscape:export-filename="pin-green.png"
       inkscape:export-xdpi="25.4"
       inkscape:export-ydpi="25.4"><path
         style="display:inline;fill:#389438;fill-opacity:1;stroke-width:2.06488"
         d="m 52.838913,129.18132 c -0.406367,-0.22069 -0.775914,-0.70195 -0.870823,-1.13407 -0.09068,-0.41287 -0.04303,-1.07116 0.105888,-1.46285 0.148921,-0.39169 0.578308,-0.82909 0.954193,-0.972 0.375885,-0.14292 1.206935,-0.25984 1.846778,-0.25984 h 1.16335 l 0.0762,-18.71927 c 0.06786,-16.672551 0.123594,-18.823571 0.509697,-19.673121 0.238425,-0.52462 0.845239,-1.36559 1.348474,-1.86882 0.503236,-0.50324 1.379723,-1.14557 1.94775,-1.42741 0.970891,-0.48172 1.682785,-0.51242 11.880693,-0.51242 8.25747,0 11.08095,0.0826 11.8238,0.34586 0.53673,0.19023 1.4342,0.79066 1.99438,1.33429 0.56017,0.54363 1.25212,1.45955 1.53766,2.03538 0.48396,0.97598 0.52477,1.73982 0.60195,11.26584 l 0.0828,10.218881 1.90158,0.12419 c 1.1946,0.078 2.29506,0.32747 2.95992,0.67096 0.58208,0.30072 1.37216,0.88509 1.75573,1.29859 0.383571,0.41351 0.913361,1.16856 1.177301,1.67788 0.36399,0.70236 0.51508,1.77864 0.62552,4.4558 0.13624,3.30257 0.18582,3.56227 0.77024,4.03489 0.34354,0.27783 0.97403,0.50514 1.40109,0.50514 0.47162,0 1.03144,-0.25497 1.4259,-0.64943 l 0.649426,-0.64943 v -6.09579 -6.09578 l -3.957236,-1.98193 c -2.283221,-1.14351 -4.080771,-2.21273 -4.249251,-2.52753 -0.19236,-0.35943 -0.264,-2.25386 -0.20994,-5.551551 0.0718,-4.37845 0.14107,-5.06487 0.55292,-5.47616 0.35261,-0.35213 1.00576,-0.49452 2.600751,-0.56695 l 2.12988,-0.0967 -2.49946,-2.55072 c -1.374701,-1.40289 -2.585611,-2.82738 -2.690911,-3.16553 -0.10558,-0.33904 -0.0518,-0.95192 0.11984,-1.36636 0.17122,-0.41335 0.65828,-0.89527 1.08236,-1.07093 0.59493,-0.24643 0.943,-0.24816 1.523871,-0.008 0.41405,0.17151 2.72668,2.29931 5.139166,4.72845 2.43266,2.44945 4.45903,4.71124 4.54953,5.07809 0.0897,0.3638 0.1286,6.73364 0.0863,14.155201 -0.0754,13.24681 -0.0873,13.51312 -0.6479,14.55208 -0.3141,0.58209 -0.90941,1.37217 -1.32292,1.75573 -0.41351,0.38357 -1.16855,0.91534 -1.67788,1.18171 -0.62163,0.32511 -1.491366,0.48403 -2.645826,0.48344 -1.24235,-6.3e-4 -2.0136,-0.15669 -2.77812,-0.56216 -0.58209,-0.30871 -1.372171,-0.89962 -1.755741,-1.31313 -0.38357,-0.41351 -0.91335,-1.16856 -1.1773,-1.67788 -0.36398,-0.70236 -0.51507,-1.77863 -0.62551,-4.4558 -0.13625,-3.30257 -0.18582,-3.56226 -0.77024,-4.03489 -0.44191,-0.35738 -1.04174,-0.50514 -2.05052,-0.50514 h -1.4259 v 6.35 6.35 h 1.1734 c 0.64537,0 1.46021,0.10904 1.81076,0.24232 0.35055,0.13328 0.78947,0.60953 0.97537,1.05834 0.26499,0.63973 0.27005,0.98005 0.0234,1.57543 -0.17301,0.41769 -0.60977,0.89394 -0.97059,1.05834 -0.46811,0.21328 -5.90057,0.29587 -18.96597,0.28831 -15.473548,-0.009 -18.419299,-0.07 -19.015886,-0.39398 z M 78.729369,103.6106 c 0.59952,-0.56321 0.61236,-0.68359 0.61236,-5.737631 0,-4.93616 -0.0252,-5.18918 -0.57528,-5.77471 -0.56971,-0.60643 -0.63567,-0.61237 -6.79597,-0.61237 -6.022774,0 -6.240165,0.0183 -6.833048,0.57529 -0.599518,0.56322 -0.612365,0.68359 -0.612365,5.73763 0,4.936161 0.02521,5.189181 0.575287,5.774721 0.569703,0.60642 0.635662,0.61236 6.795966,0.61236 6.02277,0 6.24016,-0.0183 6.83305,-0.57529 z m 21.779021,-4.319501 v -3.57188 h -2.116666 -2.11667 v 2.51034 2.510341 l 2.05053,1.04831 c 1.12778,0.57657 2.080276,1.05426 2.116656,1.06154 0.0364,0.007 0.0661,-1.59412 0.0661,-3.558651 z"
         id="path1"
         sodipodi:nodetypes="csssscsssssssssccssssssscccssssscsscscsccsssssssssscccssssscccsssssssssccccccsccc"
         inkscape:label="pump" /><path
         style="display:inline;fill:url(#linearGradient2);fill-opacity:1;stroke-width:2.06488"
         d="m 75.383879,181.49794 c -0.50334,-0.39335 -2.40834,-1.9477 -4.23334,-3.45411 -1.824999,-1.50641 -4.985057,-4.26059 -7.022348,-6.12038 -2.037292,-1.8598 -5.193585,-4.91353 -7.013985,-6.78607 -1.820401,-1.87254 -4.362902,-4.59077 -5.650004,-6.04051 -1.287101,-1.44974 -3.442607,-4.00958 -4.790013,-5.68854 -1.347407,-1.67896 -3.518972,-4.55754 -4.825701,-6.39685 -1.306729,-1.83932 -3.331073,-4.93494 -4.498541,-6.87917 -1.167468,-1.94423 -2.684945,-4.65487 -3.37217,-6.02365 -0.687224,-1.36878 -1.706183,-3.52647 -2.264353,-4.79487 -0.558169,-1.2684 -1.435632,-3.54177 -1.949917,-5.05194 -0.514286,-1.51016 -1.231486,-3.93638 -1.593779,-5.39158 -0.362293,-1.45521 -0.850808,-3.95552 -1.085589,-5.55625 -0.264281,-1.80187 -0.422196,-4.57325 -0.414591,-7.27604 0.007,-2.49643 0.183367,-5.48517 0.411862,-6.980381 0.219769,-1.43811 0.689316,-3.75983 1.043438,-5.15937 0.354123,-1.39955 0.96097,-3.4376 1.34855,-4.52901 0.38758,-1.0914 1.395188,-3.41312 2.23913,-5.15937 0.843942,-1.74625 2.240294,-4.24656 3.103004,-5.55625 0.862711,-1.30969 2.469327,-3.45281 3.570259,-4.7625 1.100932,-1.30969 2.759447,-3.10822 3.685589,-3.99675 0.926142,-0.88852 2.457801,-2.24875 3.403687,-3.02272 0.945885,-0.77397 2.791354,-2.11371 4.101041,-2.9772 1.309687,-0.86348 3.81,-2.26549 5.55625,-3.11557 1.74625,-0.85008 4.462462,-1.97572 6.036028,-2.50144 1.573566,-0.52571 4.310888,-1.25568 6.082939,-1.62216 1.77677,-0.36745 4.736124,-0.74577 6.597824,-0.84345 1.85675,-0.0974 4.89508,-0.0974 6.75183,0 1.8617,0.0977 4.82106,0.476 6.59783,0.84345 1.77205,0.36648 4.50937,1.09362 6.08293,1.61586 1.573565,0.52225 4.289775,1.64859 6.036025,2.50299 1.746246,0.85441 4.246566,2.25925 5.556246,3.12188 1.30969,0.86263 3.15516,2.20167 4.10104,2.97564 0.94589,0.77397 2.47755,2.1342 3.40369,3.02272 0.92614,0.88853 2.58466,2.68706 3.68559,3.99675 1.10093,1.30969 2.70755,3.45281 3.57026,4.7625 0.86271,1.30969 2.26408,3.81 3.11416,5.55625 0.85008,1.74625 1.97573,4.46246 2.50144,6.03603 0.52571,1.57356 1.25371,4.30136 1.61778,6.06177 0.36407,1.76041 0.7473,4.759201 0.85163,6.663971 0.10432,1.90478 0.1067,4.83245 0.005,6.50594 -0.10142,1.67349 -0.37341,4.12515 -0.60443,5.44813 -0.23101,1.32298 -0.82644,3.88829 -1.32316,5.70068 -0.49672,1.8124 -1.34282,4.4209 -1.88023,5.79666 -0.5374,1.37577 -1.74417,4.10875 -2.68171,6.07328 -0.93753,1.96453 -2.7219,5.27156 -3.96526,7.34895 -1.24337,2.0774 -3.33699,5.29208 -4.65249,7.14375 -1.31551,1.85167 -3.49426,4.74036 -4.84167,6.41932 -1.3474,1.67896 -3.4936,4.2388 -4.76933,5.68854 -1.27573,1.44974 -4.592136,4.89842 -7.369796,7.66374 -2.777655,2.76531 -6.419505,6.23171 -8.092985,7.70311 -1.67349,1.4714 -4.47146,3.82083 -6.21771,5.22095 -2.67443,2.14432 -3.321,2.54431 -4.10104,2.53706 -0.5945,-0.006 -1.2537,-0.26466 -1.84119,-0.72379 z m 9.63506,-37.74786 c 1.01242,-0.23139 3.09601,-0.84067 4.63021,-1.35396 1.5342,-0.51329 3.90531,-1.52062 5.269125,-2.2385 1.36383,-0.71789 3.44567,-1.99122 4.62632,-2.82964 1.180646,-0.83841 3.279476,-2.66245 4.664066,-4.05343 1.38459,-1.39097 3.20341,-3.4898 4.04182,-4.66407 0.83841,-1.17426 2.10791,-3.25088 2.82111,-4.6147 0.7132,-1.36383 1.6693,-3.54504 2.12467,-4.84714 0.45538,-1.3021 1.08502,-3.44522 1.39922,-4.7625 0.48803,-2.04607 0.57316,-3.2046 0.58427,-7.95129 0.0105,-4.47489 -0.0828,-5.99256 -0.47947,-7.798101 -0.27087,-1.23302 -0.90542,-3.43568 -1.41012,-4.8948 -0.5047,-1.45911 -1.50211,-3.76879 -2.21647,-5.13261 -0.71435,-1.36382 -1.9848,-3.44478 -2.82321,-4.62435 -0.83841,-1.17957 -2.65811,-3.2784 -4.04379,-4.66407 -1.38567,-1.38567 -3.4845,-3.20538 -4.664066,-4.04379 -1.17957,-0.83841 -3.26052,-2.10886 -4.62435,-2.82321 -1.363815,-0.71436 -3.673495,-1.71176 -5.132605,-2.21646 -1.45912,-0.5047 -3.66177,-1.13926 -4.89479,-1.41012 -1.80555,-0.39664 -3.32321,-0.48996 -7.79811,-0.47948 -4.74668,0.0111 -5.90521,0.0962 -7.951288,0.58428 -1.317273,0.31419 -3.460398,0.94384 -4.7625,1.39921 -1.302101,0.45537 -3.483312,1.41147 -4.847135,2.12467 -1.363822,0.7132 -3.444779,1.9827 -4.624348,2.82111 -1.179568,0.83841 -3.278401,2.65812 -4.664072,4.04379 -1.38567,1.38567 -3.205375,3.4845 -4.043787,4.66407 -0.838413,1.17957 -2.108858,3.26053 -2.823213,4.62435 -0.714354,1.36382 -1.711762,3.6735 -2.216462,5.13261 -0.5047,1.45912 -1.138575,3.66178 -1.408612,4.8948 -0.389373,1.777921 -0.490976,3.364291 -0.490976,7.665811 0,4.30152 0.101603,5.88789 0.490976,7.66581 0.270037,1.23302 0.903912,3.43568 1.408612,4.89479 0.5047,1.45912 1.502108,3.76879 2.216462,5.13262 0.714355,1.36382 1.9848,3.44566 2.823213,4.62631 0.838412,1.18065 2.662456,3.27948 4.05343,4.66407 1.390975,1.38459 3.474568,3.18988 4.630208,4.01175 1.15564,0.82187 3.232258,2.09193 4.614705,2.82234 1.382448,0.73042 3.578898,1.70006 4.880999,2.15475 1.302102,0.45469 3.385695,1.05178 4.630208,1.32686 1.244513,0.27508 2.67947,0.55609 3.18879,0.62446 0.50933,0.0684 3.18823,0.0839 5.95313,0.0344 3.34645,-0.0599 5.64247,-0.23058 6.86783,-0.51063 z"
         id="path2"
         sodipodi:nodetypes="csssssssssssscssssssssssssccsssssssssssscssssssssssscccsssssssssssssssssssscssssssssssssssssssssss"
         inkscape:label="pin" /></g><g
       id="g4"
       transform="matrix(0.49441266,0,0,0.4743718,-13.185632,73.559105)"
       inkscape:label="icon-red"
       style="fill:url(#linearGradient10);stroke-width:2.06488"><path
         style="display:inline;fill:url(#linearGradient14);fill-opacity:1;stroke-width:2.06488"
         d="m 52.838913,129.18132 c -0.406367,-0.22069 -0.775914,-0.70195 -0.870823,-1.13407 -0.09068,-0.41287 -0.04303,-1.07116 0.105888,-1.46285 0.148921,-0.39169 0.578308,-0.82909 0.954193,-0.972 0.375885,-0.14292 1.206935,-0.25984 1.846778,-0.25984 h 1.16335 l 0.0762,-18.71927 c 0.06786,-16.672551 0.123594,-18.823571 0.509697,-19.673121 0.238425,-0.52462 0.845239,-1.36559 1.348474,-1.86882 0.503236,-0.50324 1.379723,-1.14557 1.94775,-1.42741 0.970891,-0.48172 1.682785,-0.51242 11.880693,-0.51242 8.25747,0 11.08095,0.0826 11.8238,0.34586 0.53673,0.19023 1.4342,0.79066 1.99438,1.33429 0.56017,0.54363 1.25212,1.45955 1.53766,2.03538 0.48396,0.97598 0.52477,1.73982 0.60195,11.26584 l 0.0828,10.218881 1.90158,0.12419 c 1.1946,0.078 2.29506,0.32747 2.95992,0.67096 0.58208,0.30072 1.37216,0.88509 1.75573,1.29859 0.383571,0.41351 0.913361,1.16856 1.177301,1.67788 0.36399,0.70236 0.51508,1.77864 0.62552,4.4558 0.13624,3.30257 0.18582,3.56227 0.77024,4.03489 0.34354,0.27783 0.97403,0.50514 1.40109,0.50514 0.47162,0 1.03144,-0.25497 1.4259,-0.64943 l 0.649426,-0.64943 v -6.09579 -6.09578 l -3.957236,-1.98193 c -2.283221,-1.14351 -4.080771,-2.21273 -4.249251,-2.52753 -0.19236,-0.35943 -0.264,-2.25386 -0.20994,-5.551551 0.0718,-4.37845 0.14107,-5.06487 0.55292,-5.47616 0.35261,-0.35213 1.00576,-0.49452 2.600751,-0.56695 l 2.12988,-0.0967 -2.49946,-2.55072 c -1.374701,-1.40289 -2.585611,-2.82738 -2.690911,-3.16553 -0.10558,-0.33904 -0.0518,-0.95192 0.11984,-1.36636 0.17122,-0.41335 0.65828,-0.89527 1.08236,-1.07093 0.59493,-0.24643 0.943,-0.24816 1.523871,-0.008 0.41405,0.17151 2.72668,2.29931 5.139166,4.72845 2.43266,2.44945 4.45903,4.71124 4.54953,5.07809 0.0897,0.3638 0.1286,6.73364 0.0863,14.155201 -0.0754,13.24681 -0.0873,13.51312 -0.6479,14.55208 -0.3141,0.58209 -0.90941,1.37217 -1.32292,1.75573 -0.41351,0.38357 -1.16855,0.91534 -1.67788,1.18171 -0.62163,0.32511 -1.491366,0.48403 -2.645826,0.48344 -1.24235,-6.3e-4 -2.0136,-0.15669 -2.77812,-0.56216 -0.58209,-0.30871 -1.372171,-0.89962 -1.755741,-1.31313 -0.38357,-0.41351 -0.91335,-1.16856 -1.1773,-1.67788 -0.36398,-0.70236 -0.51507,-1.77863 -0.62551,-4.4558 -0.13625,-3.30257 -0.18582,-3.56226 -0.77024,-4.03489 -0.44191,-0.35738 -1.04174,-0.50514 -2.05052,-0.50514 h -1.4259 v 6.35 6.35 h 1.1734 c 0.64537,0 1.46021,0.10904 1.81076,0.24232 0.35055,0.13328 0.78947,0.60953 0.97537,1.05834 0.26499,0.63973 0.27005,0.98005 0.0234,1.57543 -0.17301,0.41769 -0.60977,0.89394 -0.97059,1.05834 -0.46811,0.21328 -5.90057,0.29587 -18.96597,0.28831 -15.473548,-0.009 -18.419299,-0.07 -19.015886,-0.39398 z M 78.729369,103.6106 c 0.59952,-0.56321 0.61236,-0.68359 0.61236,-5.737631 0,-4.93616 -0.0252,-5.18918 -0.57528,-5.77471 -0.56971,-0.60643 -0.63567,-0.61237 -6.79597,-0.61237 -6.022774,0 -6.240165,0.0183 -6.833048,0.57529 -0.599518,0.56322 -0.612365,0.68359 -0.612365,5.73763 0,4.936161 0.02521,5.189181 0.575287,5.774721 0.569703,0.60642 0.635662,0.61236 6.795966,0.61236 6.02277,0 6.24016,-0.0183 6.83305,-0.57529 z m 21.779021,-4.319501 v -3.57188 h -2.116666 -2.11667 v 2.51034 2.510341 l 2.05053,1.04831 c 1.12778,0.57657 2.080276,1.05426 2.116656,1.06154 0.0364,0.007 0.0661,-1.59412 0.0661,-3.558651 z"
         id="path3"
         sodipodi:nodetypes="csssscsssssssssccssssssscccssssscsscscsccsssssssssscccssssscccsssssssssccccccsccc"
         inkscape:label="pump" /><path
         style="display:inline;fill:url(#linearGradient15);fill-opacity:1;stroke-width:2.06488"
         d="m 75.383879,181.49794 c -0.50334,-0.39335 -2.40834,-1.9477 -4.23334,-3.45411 -1.824999,-1.50641 -4.985057,-4.26059 -7.022348,-6.12038 -2.037292,-1.8598 -5.193585,-4.91353 -7.013985,-6.78607 -1.820401,-1.87254 -4.362902,-4.59077 -5.650004,-6.04051 -1.287101,-1.44974 -3.442607,-4.00958 -4.790013,-5.68854 -1.347407,-1.67896 -3.518972,-4.55754 -4.825701,-6.39685 -1.306729,-1.83932 -3.331073,-4.93494 -4.498541,-6.87917 -1.167468,-1.94423 -2.684945,-4.65487 -3.37217,-6.02365 -0.687224,-1.36878 -1.706183,-3.52647 -2.264353,-4.79487 -0.558169,-1.2684 -1.435632,-3.54177 -1.949917,-5.05194 -0.514286,-1.51016 -1.231486,-3.93638 -1.593779,-5.39158 -0.362293,-1.45521 -0.850808,-3.95552 -1.085589,-5.55625 -0.264281,-1.80187 -0.422196,-4.57325 -0.414591,-7.27604 0.007,-2.49643 0.183367,-5.48517 0.411862,-6.980381 0.219769,-1.43811 0.689316,-3.75983 1.043438,-5.15937 0.354123,-1.39955 0.96097,-3.4376 1.34855,-4.52901 0.38758,-1.0914 1.395188,-3.41312 2.23913,-5.15937 0.843942,-1.74625 2.240294,-4.24656 3.103004,-5.55625 0.862711,-1.30969 2.469327,-3.45281 3.570259,-4.7625 1.100932,-1.30969 2.759447,-3.10822 3.685589,-3.99675 0.926142,-0.88852 2.457801,-2.24875 3.403687,-3.02272 0.945885,-0.77397 2.791354,-2.11371 4.101041,-2.9772 1.309687,-0.86348 3.81,-2.26549 5.55625,-3.11557 1.74625,-0.85008 4.462462,-1.97572 6.036028,-2.50144 1.573566,-0.52571 4.310888,-1.25568 6.082939,-1.62216 1.77677,-0.36745 4.736124,-0.74577 6.597824,-0.84345 1.85675,-0.0974 4.89508,-0.0974 6.75183,0 1.8617,0.0977 4.82106,0.476 6.59783,0.84345 1.77205,0.36648 4.50937,1.09362 6.08293,1.61586 1.573565,0.52225 4.289775,1.64859 6.036025,2.50299 1.746246,0.85441 4.246566,2.25925 5.556246,3.12188 1.30969,0.86263 3.15516,2.20167 4.10104,2.97564 0.94589,0.77397 2.47755,2.1342 3.40369,3.02272 0.92614,0.88853 2.58466,2.68706 3.68559,3.99675 1.10093,1.30969 2.70755,3.45281 3.57026,4.7625 0.86271,1.30969 2.26408,3.81 3.11416,5.55625 0.85008,1.74625 1.97573,4.46246 2.50144,6.03603 0.52571,1.57356 1.25371,4.30136 1.61778,6.06177 0.36407,1.76041 0.7473,4.759201 0.85163,6.663971 0.10432,1.90478 0.1067,4.83245 0.005,6.50594 -0.10142,1.67349 -0.37341,4.12515 -0.60443,5.44813 -0.23101,1.32298 -0.82644,3.88829 -1.32316,5.70068 -0.49672,1.8124 -1.34282,4.4209 -1.88023,5.79666 -0.5374,1.37577 -1.74417,4.10875 -2.68171,6.07328 -0.93753,1.96453 -2.7219,5.27156 -3.96526,7.34895 -1.24337,2.0774 -3.33699,5.29208 -4.65249,7.14375 -1.31551,1.85167 -3.49426,4.74036 -4.84167,6.41932 -1.3474,1.67896 -3.4936,4.2388 -4.76933,5.68854 -1.27573,1.44974 -4.592136,4.89842 -7.369796,7.66374 -2.777655,2.76531 -6.419505,6.23171 -8.092985,7.70311 -1.67349,1.4714 -4.47146,3.82083 -6.21771,5.22095 -2.67443,2.14432 -3.321,2.54431 -4.10104,2.53706 -0.5945,-0.006 -1.2537,-0.26466 -1.84119,-0.72379 z m 9.63506,-37.74786 c 1.01242,-0.23139 3.09601,-0.84067 4.63021,-1.35396 1.5342,-0.51329 3.90531,-1.52062 5.269125,-2.2385 1.36383,-0.71789 3.44567,-1.99122 4.62632,-2.82964 1.180646,-0.83841 3.279476,-2.66245 4.664066,-4.05343 1.38459,-1.39097 3.20341,-3.4898 4.04182,-4.66407 0.83841,-1.17426 2.10791,-3.25088 2.82111,-4.6147 0.7132,-1.36383 1.6693,-3.54504 2.12467,-4.84714 0.45538,-1.3021 1.08502,-3.44522 1.39922,-4.7625 0.48803,-2.04607 0.57316,-3.2046 0.58427,-7.95129 0.0105,-4.47489 -0.0828,-5.99256 -0.47947,-7.798101 -0.27087,-1.23302 -0.90542,-3.43568 -1.41012,-4.8948 -0.5047,-1.45911 -1.50211,-3.76879 -2.21647,-5.13261 -0.71435,-1.36382 -1.9848,-3.44478 -2.82321,-4.62435 -0.83841,-1.17957 -2.65811,-3.2784 -4.04379,-4.66407 -1.38567,-1.38567 -3.4845,-3.20538 -4.664066,-4.04379 -1.17957,-0.83841 -3.26052,-2.10886 -4.62435,-2.82321 -1.363815,-0.71436 -3.673495,-1.71176 -5.132605,-2.21646 -1.45912,-0.5047 -3.66177,-1.13926 -4.89479,-1.41012 -1.80555,-0.39664 -3.32321,-0.48996 -7.79811,-0.47948 -4.74668,0.0111 -5.90521,0.0962 -7.951288,0.58428 -1.317273,0.31419 -3.460398,0.94384 -4.7625,1.39921 -1.302101,0.45537 -3.483312,1.41147 -4.847135,2.12467 -1.363822,0.7132 -3.444779,1.9827 -4.624348,2.82111 -1.179568,0.83841 -3.278401,2.65812 -4.664072,4.04379 -1.38567,1.38567 -3.205375,3.4845 -4.043787,4.66407 -0.838413,1.17957 -2.108858,3.26053 -2.823213,4.62435 -0.714354,1.36382 -1.711762,3.6735 -2.216462,5.13261 -0.5047,1.45912 -1.138575,3.66178 -1.408612,4.8948 -0.389373,1.777921 -0.490976,3.364291 -0.490976,7.665811 0,4.30152 0.101603,5.88789 0.490976,7.66581 0.270037,1.23302 0.903912,3.43568 1.408612,4.89479 0.5047,1.45912 1.502108,3.76879 2.216462,5.13262 0.714355,1.36382 1.9848,3.44566 2.823213,4.62631 0.838412,1.18065 2.662456,3.27948 4.05343,4.66407 1.390975,1.38459 3.474568,3.18988 4.630208,4.01175 1.15564,0.82187 3.232258,2.09193 4.614705,2.82234 1.382448,0.73042 3.578898,1.70006 4.880999,2.15475 1.302102,0.45469 3.385695,1.05178 4.630208,1.32686 1.244513,0.27508 2.67947,0.55609 3.18879,0.62446 0.50933,0.0684 3.18823,0.0839 5.95313,0.0344 3.34645,-0.0599 5.64247,-0.23058 6.86783,-0.51063 z"
         id="path4"
         sodipodi:nodetypes="csssssssssssscssssssssssssccsssssssssssscssssssssssscccsssssssssssssssssssscssssssssssssssssssssss"
         inkscape:label="pin" /></g><g
       id="g6"
       transform="matrix(0.49441266,0,0,0.4743718,86.814368,-26.440895)"
       inkscape:label="icon-red-transparency"
       style="fill:url(#linearGradient8);stroke-width:2.06488"
       inkscape:export-filename="pin-red.png"
       inkscape:export-xdpi="25.4"
       inkscape:export-ydpi="25.4"><path
         style="display:inline;fill:url(#linearGradient6);fill-opacity:1;stroke-width:2.06488"
         d="m 52.838913,129.18132 c -0.406367,-0.22069 -0.775914,-0.70195 -0.870823,-1.13407 -0.09068,-0.41287 -0.04303,-1.07116 0.105888,-1.46285 0.148921,-0.39169 0.578308,-0.82909 0.954193,-0.972 0.375885,-0.14292 1.206935,-0.25984 1.846778,-0.25984 h 1.16335 l 0.0762,-18.71927 c 0.06786,-16.672551 0.123594,-18.823571 0.509697,-19.673121 0.238425,-0.52462 0.845239,-1.36559 1.348474,-1.86882 0.503236,-0.50324 1.379723,-1.14557 1.94775,-1.42741 0.970891,-0.48172 1.682785,-0.51242 11.880693,-0.51242 8.25747,0 11.08095,0.0826 11.8238,0.34586 0.53673,0.19023 1.4342,0.79066 1.99438,1.33429 0.56017,0.54363 1.25212,1.45955 1.53766,2.03538 0.48396,0.97598 0.52477,1.73982 0.60195,11.26584 l 0.0828,10.218881 1.90158,0.12419 c 1.1946,0.078 2.29506,0.32747 2.95992,0.67096 0.58208,0.30072 1.37216,0.88509 1.75573,1.29859 0.383571,0.41351 0.913361,1.16856 1.177301,1.67788 0.36399,0.70236 0.51508,1.77864 0.62552,4.4558 0.13624,3.30257 0.18582,3.56227 0.77024,4.03489 0.34354,0.27783 0.97403,0.50514 1.40109,0.50514 0.47162,0 1.03144,-0.25497 1.4259,-0.64943 l 0.649426,-0.64943 v -6.09579 -6.09578 l -3.957236,-1.98193 c -2.283221,-1.14351 -4.080771,-2.21273 -4.249251,-2.52753 -0.19236,-0.35943 -0.264,-2.25386 -0.20994,-5.551551 0.0718,-4.37845 0.14107,-5.06487 0.55292,-5.47616 0.35261,-0.35213 1.00576,-0.49452 2.600751,-0.56695 l 2.12988,-0.0967 -2.49946,-2.55072 c -1.374701,-1.40289 -2.585611,-2.82738 -2.690911,-3.16553 -0.10558,-0.33904 -0.0518,-0.95192 0.11984,-1.36636 0.17122,-0.41335 0.65828,-0.89527 1.08236,-1.07093 0.59493,-0.24643 0.943,-0.24816 1.523871,-0.008 0.41405,0.17151 2.72668,2.29931 5.139166,4.72845 2.43266,2.44945 4.45903,4.71124 4.54953,5.07809 0.0897,0.3638 0.1286,6.73364 0.0863,14.155201 -0.0754,13.24681 -0.0873,13.51312 -0.6479,14.55208 -0.3141,0.58209 -0.90941,1.37217 -1.32292,1.75573 -0.41351,0.38357 -1.16855,0.91534 -1.67788,1.18171 -0.62163,0.32511 -1.491366,0.48403 -2.645826,0.48344 -1.24235,-6.3e-4 -2.0136,-0.15669 -2.77812,-0.56216 -0.58209,-0.30871 -1.372171,-0.89962 -1.755741,-1.31313 -0.38357,-0.41351 -0.91335,-1.16856 -1.1773,-1.67788 -0.36398,-0.70236 -0.51507,-1.77863 -0.62551,-4.4558 -0.13625,-3.30257 -0.18582,-3.56226 -0.77024,-4.03489 -0.44191,-0.35738 -1.04174,-0.50514 -2.05052,-0.50514 h -1.4259 v 6.35 6.35 h 1.1734 c 0.64537,0 1.46021,0.10904 1.81076,0.24232 0.35055,0.13328 0.78947,0.60953 0.97537,1.05834 0.26499,0.63973 0.27005,0.98005 0.0234,1.57543 -0.17301,0.41769 -0.60977,0.89394 -0.97059,1.05834 -0.46811,0.21328 -5.90057,0.29587 -18.96597,0.28831 -15.473548,-0.009 -18.419299,-0.07 -19.015886,-0.39398 z M 78.729369,103.6106 c 0.59952,-0.56321 0.61236,-0.68359 0.61236,-5.737631 0,-4.93616 -0.0252,-5.18918 -0.57528,-5.77471 -0.56971,-0.60643 -0.63567,-0.61237 -6.79597,-0.61237 -6.022774,0 -6.240165,0.0183 -6.833048,0.57529 -0.599518,0.56322 -0.612365,0.68359 -0.612365,5.73763 0,4.936161 0.02521,5.189181 0.575287,5.774721 0.569703,0.60642 0.635662,0.61236 6.795966,0.61236 6.02277,0 6.24016,-0.0183 6.83305,-0.57529 z m 21.779021,-4.319501 v -3.57188 h -2.116666 -2.11667 v 2.51034 2.510341 l 2.05053,1.04831 c 1.12778,0.57657 2.080276,1.05426 2.116656,1.06154 0.0364,0.007 0.0661,-1.59412 0.0661,-3.558651 z"
         id="path5"
         sodipodi:nodetypes="csssscsssssssssccssssssscccssssscsscscsccsssssssssscccssssscccsssssssssccccccsccc"
         inkscape:label="pump" /><path
         style="display:inline;fill:url(#linearGradient7);fill-opacity:1;stroke-width:2.06488"
         d="m 75.383879,181.49794 c -0.50334,-0.39335 -2.40834,-1.9477 -4.23334,-3.45411 -1.824999,-1.50641 -4.985057,-4.26059 -7.022348,-6.12038 -2.037292,-1.8598 -5.193585,-4.91353 -7.013985,-6.78607 -1.820401,-1.87254 -4.362902,-4.59077 -5.650004,-6.04051 -1.287101,-1.44974 -3.442607,-4.00958 -4.790013,-5.68854 -1.347407,-1.67896 -3.518972,-4.55754 -4.825701,-6.39685 -1.306729,-1.83932 -3.331073,-4.93494 -4.498541,-6.87917 -1.167468,-1.94423 -2.684945,-4.65487 -3.37217,-6.02365 -0.687224,-1.36878 -1.706183,-3.52647 -2.264353,-4.79487 -0.558169,-1.2684 -1.435632,-3.54177 -1.949917,-5.05194 -0.514286,-1.51016 -1.231486,-3.93638 -1.593779,-5.39158 -0.362293,-1.45521 -0.850808,-3.95552 -1.085589,-5.55625 -0.264281,-1.80187 -0.422196,-4.57325 -0.414591,-7.27604 0.007,-2.49643 0.183367,-5.48517 0.411862,-6.980381 0.219769,-1.43811 0.689316,-3.75983 1.043438,-5.15937 0.354123,-1.39955 0.96097,-3.4376 1.34855,-4.52901 0.38758,-1.0914 1.395188,-3.41312 2.23913,-5.15937 0.843942,-1.74625 2.240294,-4.24656 3.103004,-5.55625 0.862711,-1.30969 2.469327,-3.45281 3.570259,-4.7625 1.100932,-1.30969 2.759447,-3.10822 3.685589,-3.99675 0.926142,-0.88852 2.457801,-2.24875 3.403687,-3.02272 0.945885,-0.77397 2.791354,-2.11371 4.101041,-2.9772 1.309687,-0.86348 3.81,-2.26549 5.55625,-3.11557 1.74625,-0.85008 4.462462,-1.97572 6.036028,-2.50144 1.573566,-0.52571 4.310888,-1.25568 6.082939,-1.62216 1.77677,-0.36745 4.736124,-0.74577 6.597824,-0.84345 1.85675,-0.0974 4.89508,-0.0974 6.75183,0 1.8617,0.0977 4.82106,0.476 6.59783,0.84345 1.77205,0.36648 4.50937,1.09362 6.08293,1.61586 1.573565,0.52225 4.289775,1.64859 6.036025,2.50299 1.746246,0.85441 4.246566,2.25925 5.556246,3.12188 1.30969,0.86263 3.15516,2.20167 4.10104,2.97564 0.94589,0.77397 2.47755,2.1342 3.40369,3.02272 0.92614,0.88853 2.58466,2.68706 3.68559,3.99675 1.10093,1.30969 2.70755,3.45281 3.57026,4.7625 0.86271,1.30969 2.26408,3.81 3.11416,5.55625 0.85008,1.74625 1.97573,4.46246 2.50144,6.03603 0.52571,1.57356 1.25371,4.30136 1.61778,6.06177 0.36407,1.76041 0.7473,4.759201 0.85163,6.663971 0.10432,1.90478 0.1067,4.83245 0.005,6.50594 -0.10142,1.67349 -0.37341,4.12515 -0.60443,5.44813 -0.23101,1.32298 -0.82644,3.88829 -1.32316,5.70068 -0.49672,1.8124 -1.34282,4.4209 -1.88023,5.79666 -0.5374,1.37577 -1.74417,4.10875 -2.68171,6.07328 -0.93753,1.96453 -2.7219,5.27156 -3.96526,7.34895 -1.24337,2.0774 -3.33699,5.29208 -4.65249,7.14375 -1.31551,1.85167 -3.49426,4.74036 -4.84167,6.41932 -1.3474,1.67896 -3.4936,4.2388 -4.76933,5.68854 -1.27573,1.44974 -4.592136,4.89842 -7.369796,7.66374 -2.777655,2.76531 -6.419505,6.23171 -8.092985,7.70311 -1.67349,1.4714 -4.47146,3.82083 -6.21771,5.22095 -2.67443,2.14432 -3.321,2.54431 -4.10104,2.53706 -0.5945,-0.006 -1.2537,-0.26466 -1.84119,-0.72379 z m 9.63506,-37.74786 c 1.01242,-0.23139 3.09601,-0.84067 4.63021,-1.35396 1.5342,-0.51329 3.90531,-1.52062 5.269125,-2.2385 1.36383,-0.71789 3.44567,-1.99122 4.62632,-2.82964 1.180646,-0.83841 3.279476,-2.66245 4.664066,-4.05343 1.38459,-1.39097 3.20341,-3.4898 4.04182,-4.66407 0.83841,-1.17426 2.10791,-3.25088 2.82111,-4.6147 0.7132,-1.36383 1.6693,-3.54504 2.12467,-4.84714 0.45538,-1.3021 1.08502,-3.44522 1.39922,-4.7625 0.48803,-2.04607 0.57316,-3.2046 0.58427,-7.95129 0.0105,-4.47489 -0.0828,-5.99256 -0.47947,-7.798101 -0.27087,-1.23302 -0.90542,-3.43568 -1.41012,-4.8948 -0.5047,-1.45911 -1.50211,-3.76879 -2.21647,-5.13261 -0.71435,-1.36382 -1.9848,-3.44478 -2.82321,-4.62435 -0.83841,-1.17957 -2.65811,-3.2784 -4.04379,-4.66407 -1.38567,-1.38567 -3.4845,-3.20538 -4.664066,-4.04379 -1.17957,-0.83841 -3.26052,-2.10886 -4.62435,-2.82321 -1.363815,-0.71436 -3.673495,-1.71176 -5.132605,-2.21646 -1.45912,-0.5047 -3.66177,-1.13926 -4.89479,-1.41012 -1.80555,-0.39664 -3.32321,-0.48996 -7.79811,-0.47948 -4.74668,0.0111 -5.90521,0.0962 -7.951288,0.58428 -1.317273,0.31419 -3.460398,0.94384 -4.7625,1.39921 -1.302101,0.45537 -3.483312,1.41147 -4.847135,2.12467 -1.363822,0.7132 -3.444779,1.9827 -4.624348,2.82111 -1.179568,0.83841 -3.278401,2.65812 -4.664072,4.04379 -1.38567,1.38567 -3.205375,3.4845 -4.043787,4.66407 -0.838413,1.17957 -2.108858,3.26053 -2.823213,4.62435 -0.714354,1.36382 -1.711762,3.6735 -2.216462,5.13261 -0.5047,1.45912 -1.138575,3.66178 -1.408612,4.8948 -0.389373,1.777921 -0.490976,3.364291 -0.490976,7.665811 0,4.30152 0.101603,5.88789 0.490976,7.66581 0.270037,1.23302 0.903912,3.43568 1.408612,4.89479 0.5047,1.45912 1.502108,3.76879 2.216462,5.13262 0.714355,1.36382 1.9848,3.44566 2.823213,4.62631 0.838412,1.18065 2.662456,3.27948 4.05343,4.66407 1.390975,1.38459 3.474568,3.18988 4.630208,4.01175 1.15564,0.82187 3.232258,2.09193 4.614705,2.82234 1.382448,0.73042 3.578898,1.70006 4.880999,2.15475 1.302102,0.45469 3.385695,1.05178 4.630208,1.32686 1.244513,0.27508 2.67947,0.55609 3.18879,0.62446 0.50933,0.0684 3.18823,0.0839 5.95313,0.0344 3.34645,-0.0599 5.64247,-0.23058 6.86783,-0.51063 z"
         id="path6"
         sodipodi:nodetypes="csssssssssssscssssssssssssccsssssssssssscssssssssssscccsssssssssssssssssssscssssssssssssssssssssss"
         inkscape:label="pin" /></g><g
       id="g11"
       transform="matrix(0.49441266,0,0,0.4743718,86.814368,73.559105)"
       inkscape:label="icon-black"
       style="fill:url(#linearGradient13);stroke-width:2.06488"><path
         style="display:inline;fill:url(#linearGradient16);fill-opacity:1;stroke-width:2.06488"
         d="m 52.838913,129.18132 c -0.406367,-0.22069 -0.775914,-0.70195 -0.870823,-1.13407 -0.09068,-0.41287 -0.04303,-1.07116 0.105888,-1.46285 0.148921,-0.39169 0.578308,-0.82909 0.954193,-0.972 0.375885,-0.14292 1.206935,-0.25984 1.846778,-0.25984 h 1.16335 l 0.0762,-18.71927 c 0.06786,-16.672551 0.123594,-18.823571 0.509697,-19.673121 0.238425,-0.52462 0.845239,-1.36559 1.348474,-1.86882 0.503236,-0.50324 1.379723,-1.14557 1.94775,-1.42741 0.970891,-0.48172 1.682785,-0.51242 11.880693,-0.51242 8.25747,0 11.08095,0.0826 11.8238,0.34586 0.53673,0.19023 1.4342,0.79066 1.99438,1.33429 0.56017,0.54363 1.25212,1.45955 1.53766,2.03538 0.48396,0.97598 0.52477,1.73982 0.60195,11.26584 l 0.0828,10.218881 1.90158,0.12419 c 1.1946,0.078 2.29506,0.32747 2.95992,0.67096 0.58208,0.30072 1.37216,0.88509 1.75573,1.29859 0.383571,0.41351 0.913361,1.16856 1.177301,1.67788 0.36399,0.70236 0.51508,1.77864 0.62552,4.4558 0.13624,3.30257 0.18582,3.56227 0.77024,4.03489 0.34354,0.27783 0.97403,0.50514 1.40109,0.50514 0.47162,0 1.03144,-0.25497 1.4259,-0.64943 l 0.649426,-0.64943 v -6.09579 -6.09578 l -3.957236,-1.98193 c -2.283221,-1.14351 -4.080771,-2.21273 -4.249251,-2.52753 -0.19236,-0.35943 -0.264,-2.25386 -0.20994,-5.551551 0.0718,-4.37845 0.14107,-5.06487 0.55292,-5.47616 0.35261,-0.35213 1.00576,-0.49452 2.600751,-0.56695 l 2.12988,-0.0967 -2.49946,-2.55072 c -1.374701,-1.40289 -2.585611,-2.82738 -2.690911,-3.16553 -0.10558,-0.33904 -0.0518,-0.95192 0.11984,-1.36636 0.17122,-0.41335 0.65828,-0.89527 1.08236,-1.07093 0.59493,-0.24643 0.943,-0.24816 1.523871,-0.008 0.41405,0.17151 2.72668,2.29931 5.139166,4.72845 2.43266,2.44945 4.45903,4.71124 4.54953,5.07809 0.0897,0.3638 0.1286,6.73364 0.0863,14.155201 -0.0754,13.24681 -0.0873,13.51312 -0.6479,14.55208 -0.3141,0.58209 -0.90941,1.37217 -1.32292,1.75573 -0.41351,0.38357 -1.16855,0.91534 -1.67788,1.18171 -0.62163,0.32511 -1.491366,0.48403 -2.645826,0.48344 -1.24235,-6.3e-4 -2.0136,-0.15669 -2.77812,-0.56216 -0.58209,-0.30871 -1.372171,-0.89962 -1.755741,-1.31313 -0.38357,-0.41351 -0.91335,-1.16856 -1.1773,-1.67788 -0.36398,-0.70236 -0.51507,-1.77863 -0.62551,-4.4558 -0.13625,-3.30257 -0.18582,-3.56226 -0.77024,-4.03489 -0.44191,-0.35738 -1.04174,-0.50514 -2.05052,-0.50514 h -1.4259 v 6.35 6.35 h 1.1734 c 0.64537,0 1.46021,0.10904 1.81076,0.24232 0.35055,0.13328 0.78947,0.60953 0.97537,1.05834 0.26499,0.63973 0.27005,0.98005 0.0234,1.57543 -0.17301,0.41769 -0.60977,0.89394 -0.97059,1.05834 -0.46811,0.21328 -5.90057,0.29587 -18.96597,0.28831 -15.473548,-0.009 -18.419299,-0.07 -19.015886,-0.39398 z M 78.729369,103.6106 c 0.59952,-0.56321 0.61236,-0.68359 0.61236,-5.737631 0,-4.93616 -0.0252,-5.18918 -0.57528,-5.77471 -0.56971,-0.60643 -0.63567,-0.61237 -6.79597,-0.61237 -6.022774,0 -6.240165,0.0183 -6.833048,0.57529 -0.599518,0.56322 -0.612365,0.68359 -0.612365,5.73763 0,4.936161 0.02521,5.189181 0.575287,5.774721 0.569703,0.60642 0.635662,0.61236 6.795966,0.61236 6.02277,0 6.24016,-0.0183 6.83305,-0.57529 z m 21.779021,-4.319501 v -3.57188 h -2.116666 -2.11667 v 2.51034 2.510341 l 2.05053,1.04831 c 1.12778,0.57657 2.080276,1.05426 2.116656,1.06154 0.0364,0.007 0.0661,-1.59412 0.0661,-3.558651 z"
         id="path10"
         sodipodi:nodetypes="csssscsssssssssccssssssscccssssscsscscsccsssssssssscccssssscccsssssssssccccccsccc"
         inkscape:label="pump" /><path
         style="display:inline;fill:url(#linearGradient17);fill-opacity:1;stroke-width:2.06488"
         d="m 75.383879,181.49794 c -0.50334,-0.39335 -2.40834,-1.9477 -4.23334,-3.45411 -1.824999,-1.50641 -4.985057,-4.26059 -7.022348,-6.12038 -2.037292,-1.8598 -5.193585,-4.91353 -7.013985,-6.78607 -1.820401,-1.87254 -4.362902,-4.59077 -5.650004,-6.04051 -1.287101,-1.44974 -3.442607,-4.00958 -4.790013,-5.68854 -1.347407,-1.67896 -3.518972,-4.55754 -4.825701,-6.39685 -1.306729,-1.83932 -3.331073,-4.93494 -4.498541,-6.87917 -1.167468,-1.94423 -2.684945,-4.65487 -3.37217,-6.02365 -0.687224,-1.36878 -1.706183,-3.52647 -2.264353,-4.79487 -0.558169,-1.2684 -1.435632,-3.54177 -1.949917,-5.05194 -0.514286,-1.51016 -1.231486,-3.93638 -1.593779,-5.39158 -0.362293,-1.45521 -0.850808,-3.95552 -1.085589,-5.55625 -0.264281,-1.80187 -0.422196,-4.57325 -0.414591,-7.27604 0.007,-2.49643 0.183367,-5.48517 0.411862,-6.980381 0.219769,-1.43811 0.689316,-3.75983 1.043438,-5.15937 0.354123,-1.39955 0.96097,-3.4376 1.34855,-4.52901 0.38758,-1.0914 1.395188,-3.41312 2.23913,-5.15937 0.843942,-1.74625 2.240294,-4.24656 3.103004,-5.55625 0.862711,-1.30969 2.469327,-3.45281 3.570259,-4.7625 1.100932,-1.30969 2.759447,-3.10822 3.685589,-3.99675 0.926142,-0.88852 2.457801,-2.24875 3.403687,-3.02272 0.945885,-0.77397 2.791354,-2.11371 4.101041,-2.9772 1.309687,-0.86348 3.81,-2.26549 5.55625,-3.11557 1.74625,-0.85008 4.462462,-1.97572 6.036028,-2.50144 1.573566,-0.52571 4.310888,-1.25568 6.082939,-1.62216 1.77677,-0.36745 4.736124,-0.74577 6.597824,-0.84345 1.85675,-0.0974 4.89508,-0.0974 6.75183,0 1.8617,0.0977 4.82106,0.476 6.59783,0.84345 1.77205,0.36648 4.50937,1.09362 6.08293,1.61586 1.573565,0.52225 4.289775,1.64859 6.036025,2.50299 1.746246,0.85441 4.246566,2.25925 5.556246,3.12188 1.30969,0.86263 3.15516,2.20167 4.10104,2.97564 0.94589,0.77397 2.47755,2.1342 3.40369,3.02272 0.92614,0.88853 2.58466,2.68706 3.68559,3.99675 1.10093,1.30969 2.70755,3.45281 3.57026,4.7625 0.86271,1.30969 2.26408,3.81 3.11416,5.55625 0.85008,1.74625 1.97573,4.46246 2.50144,6.03603 0.52571,1.57356 1.25371,4.30136 1.61778,6.06177 0.36407,1.76041 0.7473,4.759201 0.85163,6.663971 0.10432,1.90478 0.1067,4.83245 0.005,6.50594 -0.10142,1.67349 -0.37341,4.12515 -0.60443,5.44813 -0.23101,1.32298 -0.82644,3.88829 -1.32316,5.70068 -0.49672,1.8124 -1.34282,4.4209 -1.88023,5.79666 -0.5374,1.37577 -1.74417,4.10875 -2.68171,6.07328 -0.93753,1.96453 -2.7219,5.27156 -3.96526,7.34895 -1.24337,2.0774 -3.33699,5.29208 -4.65249,7.14375 -1.31551,1.85167 -3.49426,4.74036 -4.84167,6.41932 -1.3474,1.67896 -3.4936,4.2388 -4.76933,5.68854 -1.27573,1.44974 -4.592136,4.89842 -7.369796,7.66374 -2.777655,2.76531 -6.419505,6.23171 -8.092985,7.70311 -1.67349,1.4714 -4.47146,3.82083 -6.21771,5.22095 -2.67443,2.14432 -3.321,2.54431 -4.10104,2.53706 -0.5945,-0.006 -1.2537,-0.26466 -1.84119,-0.72379 z m 9.63506,-37.74786 c 1.01242,-0.23139 3.09601,-0.84067 4.63021,-1.35396 1.5342,-0.51329 3.90531,-1.52062 5.269125,-2.2385 1.36383,-0.71789 3.44567,-1.99122 4.62632,-2.82964 1.180646,-0.83841 3.279476,-2.66245 4.664066,-4.05343 1.38459,-1.39097 3.20341,-3.4898 4.04182,-4.66407 0.83841,-1.17426 2.10791,-3.25088 2.82111,-4.6147 0.7132,-1.36383 1.6693,-3.54504 2.12467,-4.84714 0.45538,-1.3021 1.08502,-3.44522 1.39922,-4.7625 0.48803,-2.04607 0.57316,-3.2046 0.58427,-7.95129 0.0105,-4.47489 -0.0828,-5.99256 -0.47947,-7.798101 -0.27087,-1.23302 -0.90542,-3.43568 -1.41012,-4.8948 -0.5047,-1.45911 -1.50211,-3.76879 -2.21647,-5.13261 -0.71435,-1.36382 -1.9848,-3.44478 -2.82321,-4.62435 -0.83841,-1.17957 -2.65811,-3.2784 -4.04379,-4.66407 -1.38567,-1.38567 -3.4845,-3.20538 -4.664066,-4.04379 -1.17957,-0.83841 -3.26052,-2.10886 -4.62435,-2.82321 -1.363815,-0.71436 -3.673495,-1.71176 -5.132605,-2.21646 -1.45912,-0.5047 -3.66177,-1.13926 -4.89479,-1.41012 -1.80555,-0.39664 -3.32321,-0.48996 -7.79811,-0.47948 -4.74668,0.0111 -5.90521,0.0962 -7.951288,0.58428 -1.317273,0.31419 -3.460398,0.94384 -4.7625,1.39921 -1.302101,0.45537 -3.483312,1.41147 -4.847135,2.12467 -1.363822,0.7132 -3.444779,1.9827 -4.624348,2.82111 -1.179568,0.83841 -3.278401,2.65812 -4.664072,4.04379 -1.38567,1.38567 -3.205375,3.4845 -4.043787,4.66407 -0.838413,1.17957 -2.108858,3.26053 -2.823213,4.62435 -0.714354,1.36382 -1.711762,3.6735 -2.216462,5.13261 -0.5047,1.45912 -1.138575,3.66178 -1.408612,4.8948 -0.389373,1.777921 -0.490976,3.364291 -0.490976,7.665811 0,4.30152 0.101603,5.88789 0.490976,7.66581 0.270037,1.23302 0.903912,3.43568 1.408612,4.89479 0.5047,1.45912 1.502108,3.76879 2.216462,5.13262 0.714355,1.36382 1.9848,3.44566 2.823213,4.62631 0.838412,1.18065 2.662456,3.27948 4.05343,4.66407 1.390975,1.38459 3.474568,3.18988 4.630208,4.01175 1.15564,0.82187 3.232258,2.09193 4.614705,2.82234 1.382448,0.73042 3.578898,1.70006 4.880999,2.15475 1.302102,0.45469 3.385695,1.05178 4.630208,1.32686 1.244513,0.27508 2.67947,0.55609 3.18879,0.62446 0.50933,0.0684 3.18823,0.0839 5.95313,0.0344 3.34645,-0.0599 5.64247,-0.23058 6.86783,-0.51063 z"
         id="path11"
         sodipodi:nodetypes="csssssssssssscssssssssssssccsssssssssssscssssssssssscccsssssssssssssssssssscssssssssssssssssssssss"
         inkscape:label="pin" /></g><path
       style="display:inline;fill:url(#linearGradient18);fill-opacity:1;stroke:none;stroke-width:0.5;stroke-dasharray:none;stroke-opacity:1"
       d="m 0.43424728,224.78897 c -0.19247707,-0.11869 -0.36751413,-0.3775 -0.41246815,-0.6099 -0.04295,-0.22204 -0.02038,-0.57607 0.05015,-0.78671 0.07054,-0.21065 0.27391709,-0.44588 0.45195615,-0.52273 0.17804007,-0.0769 0.57166922,-0.13974 0.87473332,-0.13974 h 0.5510242 l 0.03609,-10.06714 c 0.03214,-8.96642 0.05854,-10.12324 0.2414191,-10.58011 0.1129311,-0.28214 0.4003511,-0.7344 0.6387092,-1.00505 0.2383601,-0.27064 0.6535113,-0.61608 0.9225583,-0.76765 0.4598661,-0.25907 0.7970573,-0.27557 5.6273309,-0.27557 3.9111787,0 5.2485297,0.0444 5.6003827,0.18599 0.254224,0.10236 0.679314,0.42521 0.944645,0.71758 0.265327,0.29236 0.593071,0.78494 0.728318,1.09462 0.22923,0.52487 0.248558,0.93565 0.285116,6.05871 l 0.03922,5.49567 0.90069,0.0667 c 0.565826,0.0419 1.087062,0.17611 1.401976,0.36083 0.275705,0.16172 0.649929,0.47599 0.831608,0.69838 0.18168,0.22238 0.432616,0.62843 0.557633,0.90235 0.172404,0.37773 0.243969,0.95654 0.296279,2.3963 0.06453,1.77612 0.08801,1.91577 0.364827,2.16995 0.162718,0.14941 0.461353,0.27165 0.663631,0.27165 0.223385,0 0.488545,-0.13711 0.675382,-0.34924 l 0.307603,-0.34928 v -3.27827 -3.27828 l -1.874358,-1.06588 c -1.081456,-0.61497 -1.932871,-1.18999 -2.012672,-1.35928 -0.09111,-0.19332 -0.125045,-1.21212 -0.09944,-2.98561 0.03402,-2.35472 0.06682,-2.72386 0.261894,-2.94505 0.167014,-0.18938 0.476381,-0.26595 1.231854,-0.3049 l 1.008824,-0.052 -1.183877,-1.37175 c -0.651132,-0.75447 -1.224684,-1.52056 -1.274559,-1.70241 -0.05001,-0.18233 -0.02454,-0.51194 0.05676,-0.73483 0.08109,-0.2223 0.311796,-0.48147 0.512662,-0.57594 0.281792,-0.13253 0.446655,-0.13346 0.721788,-0.005 0.196116,0.0922 1.291501,1.23655 2.434183,2.54293 1.152238,1.3173 2.112035,2.53368 2.154901,2.73098 0.04249,0.19565 0.06091,3.62131 0.04088,7.61258 -0.03571,7.12409 -0.04135,7.2673 -0.30688,7.82604 -0.148775,0.31306 -0.430746,0.73796 -0.626605,0.94424 -0.195862,0.20628 -0.553488,0.49227 -0.794735,0.6355 -0.294437,0.17486 -0.70639,0.26032 -1.253204,0.26 -0.588444,-3.3e-4 -0.953748,-0.0844 -1.315866,-0.30232 -0.275709,-0.16602 -0.649933,-0.48382 -0.831613,-0.7062 -0.181679,-0.22239 -0.432611,-0.62845 -0.557631,-0.90236 -0.172401,-0.37772 -0.243966,-0.95653 -0.296275,-2.3963 -0.06454,-1.77611 -0.08802,-1.91577 -0.364828,-2.16995 -0.209311,-0.1922 -0.493423,-0.27166 -0.971235,-0.27166 h -0.675383 v 3.415 3.41501 h 0.555785 c 0.305682,0 0.691633,0.0586 0.857674,0.13031 0.166038,0.0717 0.373934,0.3278 0.461987,0.56917 0.125513,0.34404 0.12791,0.52706 0.01108,0.84726 -0.08195,0.22464 -0.288819,0.48076 -0.459722,0.56917 -0.221723,0.11467 -2.794825,0.15911 -8.9832965,0.15505 -7.3290985,-0.005 -8.72436296,-0.0376 -9.00693905,-0.21189 z M 12.69735,211.03716 c 0.283965,-0.30289 0.290045,-0.36765 0.290045,-3.08567 0,-2.65465 -0.01194,-2.79072 -0.272482,-3.10561 -0.269846,-0.32615 -0.301087,-0.32934 -3.2189346,-0.32934 -2.852708,0 -2.955675,0.009 -3.2364961,0.3094 -0.2839641,0.30288 -0.2900492,0.36763 -0.2900492,3.08566 0,2.65465 0.01194,2.79072 0.2724861,3.10562 0.2698421,0.32614 0.3010842,0.32933 3.2189331,0.32933 2.8527057,0 2.9556727,-0.009 3.2364977,-0.30939 z m 10.315707,-2.32301 v -1.92093 h -1.002566 -1.002569 v 1.35004 1.35004 l 0.971241,0.56377 c 0.534177,0.31009 0.98533,0.56699 1.002561,0.57091 0.01724,0.004 0.03131,-0.85732 0.03131,-1.91383 z"
       id="path17"
       sodipodi:nodetypes="csssscsssssssssccssssssscccssssscsscscsccsssssssssscccssssscccsssssssssccccccsccc"
       inkscape:label="pump"
       inkscape:export-filename="pump-256.png"
       inkscape:export-xdpi="260.09598"
       inkscape:export-ydpi="260.09598" /><text
       xml:space="preserve"
       style="font-weight:bold;font-size:6.00001px;line-height:1.2;font-family:Calibri;-inkscape-font-specification:'Calibri Bold';fill:#943838;fill-rule:evenodd;stroke:#ffffff;stroke-width:0.499999;stroke-linejoin:bevel;stroke-dasharray:none;stroke-opacity:1;paint-order:fill markers stroke"
       x="78.666351"
       y="216.92842"
       id="text1"><tspan
         sodipodi:role="line"
         id="tspan1"
         style="fill:#000000;fill-opacity:1;stroke:none;stroke-width:0.5"
         x="78.666351"
         y="216.92842">NOTE: create an icon using:</tspan><tspan
         sodipodi:role="line"
         style="fill:#000000;fill-opacity:1;stroke:none;stroke-width:0.5"
         x="78.666351"
         y="224.12843"
         id="tspan2">magick.exe convert pump-16.png pump-32.png pump-256.png pump.ico</tspan></text></g></svg>
